<svg id="visual" viewBox="0 0 540 960" width="540" height="960" xmlns="http://www.w3.org/2000/svg" xmlns:xlink="http://www.w3.org/1999/xlink" version="1.1"><path d="M0 251L18 271.7C36 292.3 72 333.7 108 325.7C144 317.7 180 260.3 216 260.3C252 260.3 288 317.7 324 319.2C360 320.7 396 266.3 432 237.7C468 209 504 206 522 204.5L540 203L540 0L522 0C504 0 468 0 432 0C396 0 360 0 324 0C288 0 252 0 216 0C180 0 144 0 108 0C72 0 36 0 18 0L0 0Z" fill="#6198ff"></path><path d="M0 567L18 578.3C36 589.7 72 612.3 108 599.7C144 587 180 539 216 523C252 507 288 523 324 527.7C360 532.3 396 525.7 432 517.7C468 509.7 504 500.3 522 495.7L540 491L540 201L522 202.5C504 204 468 207 432 235.7C396 264.3 360 318.7 324 317.2C288 315.7 252 258.3 216 258.3C180 258.3 144 315.7 108 323.7C72 331.7 36 290.3 18 269.7L0 249Z" fill="#3c80ff"></path><path d="M0 702L18 706.8C36 711.7 72 721.3 108 706.8C144 692.3 180 653.7 216 648.8C252 644 288 673 324 681C360 689 396 676 432 668C468 660 504 657 522 655.5L540 654L540 489L522 493.7C504 498.3 468 507.7 432 515.7C396 523.7 360 530.3 324 525.7C288 521 252 505 216 521C180 537 144 585 108 597.7C72 610.3 36 587.7 18 576.3L0 565Z" fill="#0066ff"></path><path d="M0 827L18 836.5C36 846 72 865 108 866.5C144 868 180 852 216 845.7C252 839.3 288 842.7 324 844.3C360 846 396 846 432 852.3C468 858.7 504 871.3 522 877.7L540 884L540 652L522 653.5C504 655 468 658 432 666C396 674 360 687 324 679C288 671 252 642 216 646.8C180 651.7 144 690.3 108 704.8C72 719.3 36 709.7 18 704.8L0 700Z" fill="#0059dd"></path><path d="M0 961L18 961C36 961 72 961 108 961C144 961 180 961 216 961C252 961 288 961 324 961C360 961 396 961 432 961C468 961 504 961 522 961L540 961L540 882L522 875.7C504 869.3 468 856.7 432 850.3C396 844 360 844 324 842.3C288 840.7 252 837.3 216 843.7C180 850 144 866 108 864.5C72 863 36 844 18 834.5L0 825Z" fill="#004cbb"></path></svg>